<svg width="5" height="9" viewBox="0 0 5 9" fill="none" xmlns="http://www.w3.org/2000/svg">
<path d="M4.01056 4.50414L0.14564 0.764489C0.0606832 0.682286 0.015171 0.581293 0.0091027 0.461512C0.00303437 0.34173 0.0485465 0.234866 0.14564 0.14092C0.242733 0.0469731 0.350143 0 0.467868 0C0.585594 0 0.693003 0.0469731 0.790097 0.14092L4.78427 4.00652C4.86377 4.08285 4.9196 4.16124 4.95176 4.24168C4.98392 4.32212 5 4.40961 5 4.50414C5 4.59868 4.98392 4.68617 4.95176 4.76661C4.9196 4.84705 4.86377 4.92573 4.78427 5.00265L0.790097 8.86737C0.70514 8.94957 0.600765 8.99361 0.476971 8.99948C0.353177 9.00535 0.242733 8.96132 0.14564 8.86737C0.0485465 8.77342 0 8.6695 0 8.55559C0 8.44168 0.0485465 8.33775 0.14564 8.2438L4.01056 4.50414Z" fill="black"/>
</svg>
