<svg width="20" height="20" viewBox="0 0 20 20" fill="none" xmlns="http://www.w3.org/2000/svg">
<circle cx="10" cy="10" r="10" fill="#333333"/>
<path d="M10.453 5.24163C10.3517 5.09062 10.1818 5 10 5C9.81816 5 9.64831 5.09062 9.54702 5.24163L7.48518 8.31589L4.95335 5.4648C4.79017 5.28104 4.52427 5.2291 4.30394 5.33792C4.08361 5.44675 3.96326 5.68947 4.01 5.93073L5.47519 13.493C5.62427 14.2624 6.29795 14.8181 7.08167 14.8181H12.9183C13.702 14.8181 14.3757 14.2624 14.5248 13.493L15.99 5.93073C16.0367 5.68947 15.9164 5.44675 15.6961 5.33792C15.4757 5.2291 15.2098 5.28104 15.0466 5.4648L12.5148 8.31589L10.453 5.24163Z" fill="#FFD54F"/>
</svg>
