<svg width="24" height="24" viewBox="0 0 24 24" fill="none" xmlns="http://www.w3.org/2000/svg">
<circle cx="12" cy="12" r="12" fill="#39CCCC"/>
<path fill-rule="evenodd" clip-rule="evenodd" d="M17.5999 5.64527V8.32205C17.9151 8.32205 18.2272 8.38579 18.5184 8.50962C18.8096 8.63345 19.0742 8.81495 19.297 9.04376C19.5199 9.27257 19.6967 9.5442 19.8173 9.84316C19.9379 10.1421 20 10.4625 20 10.7861C20 11.1097 19.9379 11.4301 19.8173 11.7291C19.6967 12.028 19.5199 12.2996 19.297 12.5285C19.0742 12.7573 18.8096 12.9388 18.5184 13.0626C18.2272 13.1864 17.9151 13.2502 17.5999 13.2502V15.7142C17.5999 17.0678 16.095 17.8407 15.0398 17.0284L13.3917 15.7586C12.5108 15.0805 11.485 14.6277 10.3996 14.4378V16.7738C10.3997 17.3107 10.2107 17.8296 9.86751 18.2348C9.5243 18.6399 9.05 18.9041 8.53203 18.9785C8.01407 19.0529 7.48735 18.9326 7.04899 18.6398C6.61062 18.3469 6.29015 17.9012 6.14664 17.3848L4.89059 12.8707C4.43859 12.3227 4.14443 11.6561 4.04119 10.9459C3.93795 10.2356 4.02971 9.50992 4.30616 8.8503C4.58261 8.19067 5.03279 7.62328 5.6061 7.21191C6.17941 6.80054 6.85312 6.5615 7.5515 6.52165L9.966 6.38366C11.1474 6.3163 12.2963 5.96188 13.3181 5.34958L15.1934 4.22597C16.2607 3.58778 17.5999 4.3771 17.5999 5.64527ZM6.90668 14.1356L7.68511 16.9339C7.72257 17.0694 7.80651 17.1863 7.92141 17.2632C8.03632 17.3401 8.17445 17.3717 8.31028 17.3522C8.44611 17.3326 8.57047 17.2633 8.6604 17.157C8.75033 17.0507 8.79976 16.9146 8.79955 16.7738V14.3015L7.5515 14.23C7.33442 14.2166 7.11876 14.185 6.90668 14.1356ZM15.9998 5.64527L14.1238 6.7697C12.9845 7.45283 11.7133 7.87166 10.3996 7.9968V12.7762C11.8293 12.9783 13.1901 13.5508 14.3518 14.4444L15.9998 15.7142V5.64527ZM8.79955 8.09536L7.6395 8.16107C7.09984 8.19166 6.59095 8.42885 6.2133 8.82581C5.83565 9.22277 5.61666 9.75065 5.59959 10.3053C5.58251 10.8599 5.76857 11.4009 6.12104 11.8216C6.47352 12.2422 6.96679 12.5119 7.5035 12.5775L7.6395 12.5898L8.79955 12.6555V8.09536ZM17.5999 9.96476V11.6075C17.8038 11.6072 17.9999 11.5271 18.1482 11.3834C18.2965 11.2396 18.3857 11.0432 18.3977 10.8342C18.4096 10.6253 18.3434 10.4195 18.2125 10.2589C18.0816 10.0984 17.896 9.99523 17.6935 9.97051L17.5999 9.96476Z" fill="white"/>
</svg>
