<svg width="24" height="24" viewBox="0 0 24 24" fill="none" xmlns="http://www.w3.org/2000/svg">
<path fill-rule="evenodd" clip-rule="evenodd" d="M13.2 8.4C13.2 7.73726 12.6628 7.2 12 7.2C11.3372 7.2 10.8 7.73726 10.8 8.4V10.8H8.4C7.73726 10.8 7.2 11.3372 7.2 12C7.2 12.6628 7.73726 13.2 8.4 13.2H10.8V15.6C10.8 16.2628 11.3372 16.8 12 16.8C12.6628 16.8 13.2 16.2628 13.2 15.6V13.2H15.6C16.2628 13.2 16.8 12.6628 16.8 12C16.8 11.3372 16.2628 10.8 15.6 10.8H13.2V8.4ZM0 12C0 5.37258 5.37258 0 12 0C18.6274 0 24 5.37258 24 12C24 18.6274 18.6274 24 12 24C5.37258 24 0 18.6274 0 12Z" fill="currentColor"/>
</svg>
