<svg width="20" height="20" viewBox="0 0 20 20" fill="none" xmlns="http://www.w3.org/2000/svg">
<g clip-path="url(#clip0_362_1301)">
<path d="M10.3137 7.66602H8.93494V10.4419H10.3137C11.1877 10.4419 11.8982 9.81934 11.8982 9.05398C11.8982 8.28863 11.1877 7.66602 10.3137 7.66602Z" fill="#FFD54F"/>
<path d="M10 0C4.47754 0 0 4.47754 0 10C0 15.5231 4.47754 20 10 20C15.5225 20 20 15.5231 20 10C20 4.47754 15.5225 0 10 0ZM10.3137 11.9849H8.93492V14.0064C8.93492 14.3946 8.61996 14.7095 8.23117 14.7095H7.8784C7.48898 14.7095 7.17465 14.3945 7.17465 14.0064V6.82617C7.17465 6.43797 7.48898 6.12305 7.8784 6.12305H10.3137C12.1582 6.12305 13.6584 7.43773 13.6584 9.05395C13.6584 10.6702 12.1582 11.9849 10.3137 11.9849Z" fill="#f5c92f"/>
</g>
<defs>
<clipPath id="clip0_362_1301">
<rect width="20" height="20" fill="white"/>
</clipPath>
</defs>
</svg>
